<?xml version="1.0"?>
<svg xmlns="http://www.w3.org/2000/svg" viewBox="0 0 50 50">
    <path style="line-height:normal;text-indent:0;text-align:start;text-decoration-line:none;text-decoration-style:solid;text-decoration-color:#000;text-transform:none;block-progression:tb;isolation:auto;mix-blend-mode:normal" d="M 11 6 C 8.2504839 6 6 8.2504839 6 11 L 6 39 C 6 41.749516 8.2504839 44 11 44 L 39 44 C 41.749516 44 44 41.749516 44 39 L 44 11 C 44 8.2504839 41.749516 6 39 6 L 11 6 z M 11 8 L 39 8 C 40.668484 8 42 9.3315161 42 11 L 42 39 C 42 40.668484 40.668484 42 39 42 L 11 42 C 9.3315161 42 8 40.668484 8 39 L 8 11 C 8 9.3315161 9.3315161 8 11 8 z M 11 13 L 11 31 L 15 31 L 15 34 L 19 34 L 19 37 L 31 37 L 31 34 L 35 34 L 35 31 L 39 31 L 39 13 L 38 13 L 35 13 L 33 13 L 11 13 z M 13 15 L 15 15 L 15 18 L 17 18 L 17 15 L 18 15 L 18 18 L 20 18 L 20 15 L 21 15 L 21 18 L 23 18 L 23 15 L 24 15 L 24 18 L 26 18 L 26 15 L 27 15 L 27 18 L 29 18 L 29 15 L 30 15 L 30 18 L 32 18 L 32 15 L 33 15 L 33 18 L 35 18 L 35 15 L 37 15 L 37 29 L 33 29 L 33 32 L 29 32 L 29 35 L 21 35 L 21 32 L 17 32 L 17 29 L 13 29 L 13 15 z" font-weight="400" font-family="sans-serif" white-space="normal" overflow="visible"/>
</svg>
